

<svg version="1.1" id="layer" xmlns="http://www.w3.org/2000/svg" xmlns:xlink="http://www.w3.org/1999/xlink" x="0px" y="0px" viewBox="20.261005401611328 218.16700744628906 549.9019165039062 151.60887145996094" style="height: 1em; margin-bottom: 0.2em; padding-bottom: 0.1em; display: inline; aligne: center;" xml:space="preserve" fill="#0045E6">
  <path class="st0" d="m550.092 218.167 -1.833 0.275 -1.558 0.55 -1.833 0.733 -1.558 0.55 -1.558 1.008 -1.283 1.008 -1.283 1.283 -1.283 1.283 -1.008 1.283 -0.733 1.558 -0.733 1.558 -0.733 1.833 -0.55 1.558 -0.275 1.833v3.85l0.275 1.833 0.55 1.833 0.733 1.558 0.733 1.558 0.733 1.558 1.008 1.283 1.283 1.283 1.283 1.283 1.283 1.008 1.558 1.008 1.558 0.733 1.833 0.55 1.558 0.55 1.833 0.275h3.85l1.833 -0.275 1.558 -0.55 1.833 -0.55 1.558 -0.733 1.558 -1.008 1.283 -1.008 1.283 -1.008 1.283 -1.283 1.008 -1.283 0.733 -1.558 0.733 -1.558 0.733 -1.558 0.275 -1.833 0.55 -1.833v-4.4l-0.55 -1.833 -0.275 -1.558 -0.733 -1.742 -0.733 -1.558 -0.733 -1.558 -1.008 -1.283 -1.283 -1.283 -1.283 -1.008 -1.283 -1.008 -1.558 -1.008 -1.558 -0.733 -1.833 -0.55 -1.558 -0.55 -1.833 -0.275h-3.85zm-0.733 31.808 -2.842 -0.733 -2.292 -1.283 -2.017 -1.833 -1.833 -2.017 -1.283 -2.292 -0.733 -2.842 -0.275 -2.842 0.275 -2.842 0.733 -2.567 1.283 -2.292 1.833 -2.017 2.108 -1.833 2.292 -1.283 2.842 -0.733 2.842 -0.275 2.842 0.275 2.567 0.733 2.292 1.283 2.017 1.833 1.833 2.017 1.283 2.292 0.733 2.842 0.275 2.842 -0.275 2.842 -0.733 2.567 -1.283 2.292 -1.833 2.017 -2.108 1.833 -2.292 1.283 -2.567 0.733 -2.842 0.275zM317.533 218.167v150.975H343.75v-46.933h10.267l34.467 46.933h32.083L373.083 309.925l41.617 -55.367h-30.8l-32.358 41.8H343.75V218.167zM145.108 369.142h26.767V218.167h-26.767zm399.117 -142.542v19.433h4.125v-7.975h3.85l4.4 7.975h4.583l-4.858 -8.158 1.283 -0.275 1.008 -0.275 1.008 -0.275 0.733 -0.55 0.55 -0.733 0.55 -1.008 0.275 -1.008v-1.283l-0.275 -1.742 -0.275 -1.283 -0.733 -1.008 -0.733 -0.733 -1.283 -0.55 -1.283 -0.275 -3.117 -0.275zm4.125 3.117h4.858l1.833 0.275 1.283 0.275 0.55 0.275 0.55 0.55 0.275 0.55v0.55l-0.275 1.558 -0.275 0.55 -0.275 0.55 -1.283 0.275 -1.283 0.275h-5.958zM469.425 254.833h-5.133l-4.858 0.55 -4.583 0.55 -4.4 0.733 -4.125 1.008 -3.575 1.283 -3.3 1.742 -3.117 1.833 -2.842 2.292 -2.292 2.842 -1.833 3.117 -1.558 3.3 -1.008 4.125 -0.733 4.4v9.533l0.733 4.4 0.733 3.575 1.558 3.3 1.558 3.117 2.292 2.567 2.292 2.292 2.842 2.017 3.3 1.558 3.3 1.558 4.125 1.283 4.125 1.008 4.583 0.733 4.858 0.733 5.133 0.55 5.683 0.55 7.7 0.55 6.417 0.733 5.133 1.008 2.108 0.733 1.833 0.733 1.558 1.008 1.283 1.008 1.008 1.008 0.733 1.283 0.55 1.283 0.55 1.558 0.275 1.558v3.85l-0.275 1.833 -0.275 1.558 -0.55 1.558 -0.733 1.558 -1.008 1.283 -1.008 1.008 -1.008 1.008 -1.558 1.008 -1.558 0.733 -1.833 0.55 -1.833 0.55 -4.583 0.55 -5.408 0.275h-13.108l-4.125 -0.733 -1.558 -0.55 -1.833 -0.55 -1.283 -0.733 -1.283 -1.008 -1.008 -1.008 -0.733 -1.283 -0.733 -1.558 -0.733 -1.833 -0.275 -1.833 -0.55 -2.017 -0.275 -5.133h-27.225v8.708l0.275 2.567 0.275 2.567 0.733 2.017 0.55 2.292 1.008 1.833 1.008 1.833 1.008 1.833 1.283 1.558 1.283 1.558 1.283 1.283 1.558 1.008 3.575 2.017 3.575 1.833 4.125 1.283 4.125 1.008 4.4 0.55 4.4 0.55 4.583 0.275 4.583 0.275h14.117l5.133 -0.275 4.858 -0.275 4.858 -0.733 4.4 -0.733 4.125 -1.008 3.575 -1.558 3.575 -1.833 3.117 -2.017 2.842 -2.567 2.567 -3.117 1.833 -3.3 1.833 -4.125 1.008 -4.4 0.733 -5.133 0.275 -5.592 -0.275 -4.125 -0.733 -3.85 -1.008 -3.575 -1.558 -3.117 -1.833 -2.842 -2.292 -2.567 -2.567 -2.017 -2.842 -2.017 -3.117 -1.558 -3.575 -1.558 -3.575 -1.008 -4.125 -1.008 -4.125 -0.733 -4.4 -0.733 -8.983 -0.733 -8.983 -0.733 -7.242 -0.733 -5.408 -1.008 -2.108 -0.733 -1.558 -0.55 -1.558 -0.733 -1.008 -1.008 -1.008 -0.733 -0.55 -1.283 -0.55 -1.008 -0.275 -1.558 -0.275 -3.117 0.275 -3.85 0.275 -1.833 0.275 -1.558 0.55 -1.283 0.55 -1.283 1.008 -1.008 1.008 -1.008 1.283 -0.733 1.283 -0.55 1.833 -0.55 2.108 -0.55 5.133 -0.55 6.417 -0.275 6.692 0.275 5.133 0.55 2.017 0.55 2.108 0.55 1.558 0.733 1.558 0.733 1.283 0.733 1.008 1.008 0.733 1.008 0.55 1.283 0.55 1.558 0.275 1.558 0.275 3.575h25.667l0.55 -4.858 -0.275 -2.292 -0.275 -2.292 -0.275 -2.292 -0.55 -2.017 -0.733 -1.833 -0.733 -1.833 -1.008 -1.558 -1.008 -1.558 -1.283 -1.283 -1.283 -1.283 -3.117 -2.292 -3.3 -1.833 -3.575 -1.558 -3.85 -1.283 -3.85 -0.733 -4.125 -0.733 -4.4 -0.275 -8.25 -0.55 -8.25 -0.275c0.092 -0.367 -5.317 -0.092 -5.317 -0.092m-231.275 0 -6.142 0.55 -5.958 1.008 -5.133 1.283 -4.583 1.833 -2.292 1.008 -2.017 1.283 -2.017 1.283 -1.833 1.283 -1.558 1.558 -1.558 1.558 -1.558 1.833 -1.558 2.017 -1.008 2.017 -1.283 2.017 -2.108 4.583 -1.558 5.408 -1.283 5.867 -0.733 6.417 -0.55 6.967 -0.275 7.7 0.275 7.7 0.55 6.967 0.733 6.692 1.283 5.592 1.558 5.408 1.833 4.583 1.283 2.017 1.283 2.017 1.283 1.833 1.558 1.833 1.558 1.742 1.558 1.283 1.833 1.558 2.017 1.283 2.017 1.008 2.017 1.008 4.858 1.742 5.133 1.283 5.867 1.008 6.142 0.55h12.833l5.408 -0.275 5.133 -0.275 4.858 -0.55 4.675 -0.733 4.4 -1.283 4.125 -1.283 3.575 -1.558 3.3 -2.017 2.842 -2.292 2.567 -2.567 2.017 -3.117 1.558 -3.575 1.283 -4.125 0.733 -4.308 0.275 -5.133v-4.125h-27.042v4.583l-0.275 2.017 -0.55 2.017 -0.733 1.558 -0.733 1.558 -1.008 1.008 -1.283 1.283 -1.558 0.733 -1.558 0.733 -2.108 0.733 -2.017 0.55 -2.292 0.55 -5.133 0.275 -6.142 0.275h-3.3l-3.117 -0.275 -2.842 -0.55 -2.567 -0.55 -2.292 -1.008 -2.017 -1.008 -1.467 -1.1 -1.558 -1.833 -1.283 -2.017 -1.008 -2.292 -1.008 -2.842 -0.733 -3.117 -0.55 -3.3 -0.275 -4.125 -0.275 -4.4v-4.858h76.817v-7.425l-0.275 -6.967 -0.55 -6.417 -0.733 -6.142 -1.283 -5.408 -1.558 -4.858 -2.108 -4.583 -2.567 -3.85 -1.283 -2.017 -1.558 -1.558 -1.558 -1.833 -1.833 -1.283 -1.833 -1.558 -2.017 -1.283 -4.125 -2.017 -4.858 -1.833 -5.133 -1.558 -5.958 -1.008 -6.417 -0.55 -6.967 -0.275zm-17.508 42.075 0.275 -3.3 0.55 -3.117 0.55 -2.567 0.733 -2.567 0.733 -2.017 1.283 -1.833 1.283 -1.833 1.558 -1.283 1.833 -1.283 2.017 -1.008 2.108 -0.733 2.567 -0.55 2.842 -0.55 3.117 -0.275h6.692l3.117 0.275 2.842 0.55 2.567 0.55 2.292 0.733 2.017 1.008 1.833 1.283 1.833 1.283 1.283 1.833 1.283 1.833 0.733 2.017 0.733 2.567 0.733 2.567 0.275 3.117 0.275 3.3v3.3h-49.867zM65.175 254.833l-6.142 0.55 -5.958 1.008 -5.133 1.283 -4.858 1.833 -2.017 1.008 -2.017 1.283 -2.108 1.283 -1.742 1.283 -1.833 1.558 -1.558 1.558 -1.558 1.833 -1.283 2.017 -1.283 2.017 -1.008 2.017 -2.017 4.583 -1.558 5.408 -1.283 5.867 -0.733 6.417 -0.55 6.967 -0.275 7.7 0.275 7.7 0.275 6.967 1.008 6.692 1.008 5.592 1.558 5.408 2.108 4.583 1.008 2.017 1.283 2.017 1.558 1.833 1.283 1.833 1.558 1.742 1.833 1.283 1.833 1.558 1.833 1.283 2.108 1.008L43.083 364.833l4.583 1.742 5.408 1.283 5.683 1.008 6.417 0.55h12.558l5.408 -0.275 5.408 -0.275 4.858 -0.55 4.583 -0.733 4.4 -1.283 3.85 -1.283 3.575 -1.558 3.3 -2.017 3.117 -2.292 2.292 -2.567 2.108 -3.117 1.833 -3.575 1.008 -4.125 0.733 -4.308 0.275 -5.133v-4.125h-26.767v4.583l-0.275 2.017 -0.55 2.017 -0.733 1.558 -0.733 1.558 -1.283 1.008 -1.283 1.283 -1.283 0.733 -1.833 0.733 -1.833 0.733 -2.108 0.55 -2.292 0.55 -5.408 0.275 -5.958 0.275H68.75l-3.3 -0.275 -2.842 -0.55 -2.292 -0.55 -2.292 -1.008 -2.017 -1.008 -1.833 -1.283 -1.558 -1.833 -1.283 -2.017 -1.008 -2.292 -0.733 -2.842 -0.733 -3.117 -0.55 -3.3 -0.275 -4.125 -0.367 -4.125v-4.858h76.633V302.5l-0.55 -6.417 -1.008 -6.142 -1.008 -5.408 -1.833 -4.858 -2.108 -4.583 -2.292 -3.85 -1.283 -2.017 -1.558 -1.558 -1.558 -1.833 -1.833 -1.283 -1.833 -1.558 -2.017 -1.283 -4.125 -2.017 -4.858 -1.833 -5.408 -1.558 -5.683 -1.008 -6.417 -0.55 -6.967 -0.275c0.092 0.092 -6.783 0.367 -6.783 0.367M47.667 296.908l0.275 -3.3 0.275 -3.117 0.733 -2.567 0.55 -2.567 1.008 -2.017 1.008 -1.833 1.283 -1.833 1.558 -1.283 1.833 -1.283 2.017 -1.008 2.292 -0.733 2.567 -0.55 2.842 -0.55 3.117 -0.275h6.692l3.117 0.275 2.842 0.55 2.567 0.55 2.292 0.733 2.017 1.008 1.833 1.283 1.558 1.283 1.558 1.833 1.008 1.833 1.008 2.017 0.733 2.567 0.55 2.567 0.55 3.117 0.275 3.3v3.3H47.667z"/>
</svg>
	