<svg xmlns="http://www.w3.org/2000/svg" viewBox="0 0 130 40" style="height: 1.1em; margin-bottom: 0.2em; display: inline; aligne: center;"><defs><style>.cls-1{fill:#4ec2c2}</style></defs><g id="Layer_2" data-name="Layer 2"><g id="Layer_1-2" data-name="Layer 1"><g id="Page-1"><path id="Fill-1" d="M5 34.31h3.81l.26-.25v-.86Z" class="cls-1"/><path id="Fill-2" d="m14.93 31.64 1 2.52.25.17H21l.22-.33-1.5-3.64Z" class="cls-1"/><path id="Fill-3" d="m15.15 5.51-.24.15-5.29 10.57-.53-.13V5.76l-.26-.25H5l-.26.26v27.56l4.37-5.43V25L11 21.28l1.11 2.88 3.38-4.22-1.27-3.07 6-11-.22-.35Z" class="cls-1"/><path id="Fill-4" d="m9.07 28.78-3.93 4.91 3.93-1.06Z" class="cls-1"/><path id="Fill-5" d="m14.73 31.12 4.78-1.29L17.5 25l-1.81-4.42-3.39 4.18 1.81 4.74Z" class="cls-1"/><path id="Fill-6" d="m26.79 6.69-3.37 4.2h3.22l.26-.26V6.8Z" class="cls-1"/><path id="Fill-7" d="m22.75 10.84 3.44-4.3H22.8l-.25.26v3.84Z" class="cls-1"/><path id="Fill-8" d="M26.64 13.68h-3.85l-.25.26v15.1l4.36-1.17V13.93Z" class="cls-1"/><path id="Fill-9" d="M22.52 29.61v4.47l.26.25h3.84l.26-.26v-5.63Z" class="cls-1"/><g id="Group-62"><path id="Fill-10" d="M37.28 17c.56 0 .93.15 1.1.43a2.86 2.86 0 0 1 .28 1.47v4l.76 1.59 3.59-1v-6.64a3.65 3.65 0 0 0-.84-2.44 2.82 2.82 0 0 0-2.23-1 6.17 6.17 0 0 0-2.2.39 6.68 6.68 0 0 0-1.62.85c-.23.17-.49.39-.8.65l-.22.19.9 1.86.29-.12a2.48 2.48 0 0 1 1-.21" class="cls-1"/><path id="Fill-12" d="m34.87 13.94-.25-.25h-.37l.62 1.31Z" class="cls-1"/><path id="Fill-14" d="M30.5 27.47v6.62l.26.25h3.84l.26-.26V26.3Z" class="cls-1"/><path id="Fill-16" d="m30.77 13.68-.25.26v13l4.36-1.18v-7.62l.1-.08c.23-.19.41-.33.55-.43l-1.88-3.94Z" class="cls-1"/><path id="Fill-18" d="M39.66 25 43 32v-7.9Z" class="cls-1"/><path id="Fill-20" d="M38.66 24.21v.5l.21-.06Z" class="cls-1"/><path id="Fill-22" d="m39.11 25.16-.45.12v8.82l.25.25h3.85l.24-.25v-.79Z" class="cls-1"/><path id="Fill-24" d="m54.67 15.05-.14-.14a7.7 7.7 0 0 0-.88-.7 4.11 4.11 0 0 0-1.18-.6 4.34 4.34 0 0 0-1.32-.19 5 5 0 0 0-1.64.26 4.11 4.11 0 0 0-1.27.71 4 4 0 0 0-.92 1.13 7.24 7.24 0 0 0-.63 1.39 10.84 10.84 0 0 0-.39 1.65c-.1.62-.18 1.22-.22 1.79S46 21.57 46 22.27v.48l4.31-1.16v-.96a10.6 10.6 0 0 1 .11-1.39 5.63 5.63 0 0 1 .3-1.14 1.58 1.58 0 0 1 .57-.79 1.56 1.56 0 0 1 .94-.27 5.77 5.77 0 0 1 2.77.68l.15.07v2.49l4.36-1.17v-3.9l-4.35-1.31v1.6Z" class="cls-1"/><path id="Fill-26" d="M59.5 14.64V5.83l-.25-.25h-3.84l-.25.26v7.5Z" class="cls-1"/><path id="Fill-28" d="M55.14 20.87v9.57l-.18.06a7.85 7.85 0 0 1-2.74.52 1.24 1.24 0 0 1-.9-.36 2.29 2.29 0 0 1-.59-1.07 9.52 9.52 0 0 1-.31-1.52c-.06-.52-.1-1.13-.11-1.81v-4.08L46 23.33V25.91a20.35 20.35 0 0 0 .31 3.09 13.65 13.65 0 0 0 .83 2.75 5.1 5.1 0 0 0 1.6 2.13 4 4 0 0 0 2.45.79 4.22 4.22 0 0 0 2.27-.67 7.9 7.9 0 0 0 1.2-.89l.47-.41v1.36l.25.26h3.85l.25-.25V19.65Z" class="cls-1"/><path id="Fill-30" d="M75 19.88h-3.9l-.26.25v2.79l.25.26h3.83v.87c0 .81 0 1.54-.09 2.17a13 13 0 0 1-.34 1.91 5 5 0 0 1-.68 1.55 3.13 3.13 0 0 1-1.14 1 3.5 3.5 0 0 1-1.7.38 3.94 3.94 0 0 1-1.47-.25 2.61 2.61 0 0 1-1-.73 4.76 4.76 0 0 1-.75-1.08 5.69 5.69 0 0 1-.44-1.44c-.09-.56-.17-1.12-.21-1.66s-.1-1.17-.1-1.84v-6.39l-4.36 1.18v4.27a30.62 30.62 0 0 0 .2 3.8 14.92 14.92 0 0 0 .75 3.15 7.12 7.12 0 0 0 1.48 2.48 6.39 6.39 0 0 0 2.4 1.55 9.48 9.48 0 0 0 3.45.57 4.06 4.06 0 0 0 3.78-2.43l.3-.59.85 2.56.25.18H79l.26-.26v-13Z" class="cls-1"/><path id="Fill-32" d="M76.91 15h1.88l.25-.25v-.32Z" class="cls-1"/><path id="Fill-34" d="m66.34 17.29-3.65-1.1v2.08Z" class="cls-1"/><path id="Fill-36" d="M78.84 12c0-.28-.09-.54-.14-.79s-.13-.54-.21-.79a8 8 0 0 0-1.39-2.73 5.87 5.87 0 0 0-2.43-1.79 9.37 9.37 0 0 0-3.51-.61c-5.53 0-8.37 3.47-8.46 10.32l4.35 1.31v-2a14 14 0 0 1 .19-2.4 6.55 6.55 0 0 1 .64-1.87 3 3 0 0 1 1.25-1.27 4.37 4.37 0 0 1 2-.43 4.28 4.28 0 0 1 1.52.25 2.79 2.79 0 0 1 1 .67 3.06 3.06 0 0 1 .6 1.09 7.63 7.63 0 0 1 .31 1.4c0 .47.09 1 .1 1.7v.74l.21.22L79 13.89a16.74 16.74 0 0 0-.16-1.89" class="cls-1"/><path id="Fill-38" d="M79 19.88h-2.11l2.38.72v-.46Z" class="cls-1"/><path id="Fill-40" d="M94 27h-3.8l-.26.25V28a9.46 9.46 0 0 1-.09 1.23 4.65 4.65 0 0 1-.27 1 1.37 1.37 0 0 1-.56.68 1.9 1.9 0 0 1-1 .22 1.5 1.5 0 0 1-.81-.21 1.54 1.54 0 0 1-.53-.6 4.88 4.88 0 0 1-.34-.94 5.8 5.8 0 0 1-.17-1.13v-4.03h3.19L81.81 22v3.1c0 1.14.08 2.15.18 3a14.12 14.12 0 0 0 .56 2.59 6.55 6.55 0 0 0 1.06 2.15 4.87 4.87 0 0 0 1.78 1.37 5.62 5.62 0 0 0 1.22.39l7.66-7.31Z" class="cls-1"/><path id="Fill-42" d="M89.92 20.81v1.09h-3.77v-1a13.54 13.54 0 0 1 .1-1.44 7 7 0 0 1 .27-1.21 1.88 1.88 0 0 1 .58-.9 1.66 1.66 0 0 1 1.89 0 1.66 1.66 0 0 1 .56.86 7.21 7.21 0 0 1 .28 1.18 13.54 13.54 0 0 1 .09 1.4Zm4.3.11a22.5 22.5 0 0 0-.31-2.38 7.7 7.7 0 0 0-.67-2.08 7 7 0 0 0-1.12-1.57 4.31 4.31 0 0 0-1.71-1.08 7.35 7.35 0 0 0-2.35-.35 6.72 6.72 0 0 0-2.56.46 4.85 4.85 0 0 0-1.79 1.24 5.94 5.94 0 0 0-1.1 2 11.56 11.56 0 0 0-.61 2.38s0 .06 0 .09V20.54c0 .27 0 .55-.07.83l9.45 2.85h2.76l.16-.22v-.36c0-1 0-1.91-.08-2.69Z" class="cls-1"/><path id="Fill-44" d="M87.29 34.66H88A5.82 5.82 0 0 0 92.62 33a5.66 5.66 0 0 0 .93-1.51l.06-.15c0-.14.11-.29.16-.44s.09-.29.13-.43l.06-.22.12-.59a.44.44 0 0 1 0-.1c0-.23.07-.47.1-.72 0-.25 0-.52.06-.79Z" class="cls-1"/><path id="Fill-46" d="M104.75 28.89v.13a1.46 1.46 0 0 1 0 .22 4.24 4.24 0 0 1-.27 1 1.24 1.24 0 0 1-.55.67 1.85 1.85 0 0 1-1 .23 1.43 1.43 0 0 1-1.34-.82 4.77 4.77 0 0 1-.34-.93 5.92 5.92 0 0 1-.17-1.13v-.47l-4.38-1.36v.75a2.11 2.11 0 0 0 0 .25l.06.62a14.66 14.66 0 0 0 .55 2.58 6.65 6.65 0 0 0 1.07 2.15 4.77 4.77 0 0 0 1.78 1.37 6.14 6.14 0 0 0 2.63.53 5.83 5.83 0 0 0 4.68-1.68q.18-.21.33-.42v-.07a5.11 5.11 0 0 0 .28-.46v-.06c.07-.13.14-.27.2-.41l.08-.17c.06-.15.12-.31.17-.46l.08-.26c0-.09 0-.18.08-.28s0-.2.07-.3l-4.1-1.23" class="cls-1"/><path id="Fill-48" d="M107 14.9a4.27 4.27 0 0 0-1.71-1.07 7.24 7.24 0 0 0-2.34-.35 6.62 6.62 0 0 0-2.57.46 4.89 4.89 0 0 0-1.78 1.24 5.9 5.9 0 0 0-1.11 1.95 12.49 12.49 0 0 0-.59 2.43c-.11.82-.18 1.78-.22 2.83v2.57l4.32-4.17a11 11 0 0 1 .09-1.28 6.76 6.76 0 0 1 .27-1.21 1.81 1.81 0 0 1 .58-.9 1.48 1.48 0 0 1 1-.3 1.46 1.46 0 0 1 .94.29 1.57 1.57 0 0 1 .34.38l2.85-2.77-.1-.11" class="cls-1"/><path id="Fill-50" d="M108.87 27h-3.81l-.26.25v1.03l4.2 1.27c0-.19.06-.4.08-.6a.78.78 0 0 0 0-.16V27.3Z" class="cls-1"/><path id="Fill-52" d="M109.08 20.94c-.06-.78-.17-1.58-.31-2.38a7.55 7.55 0 0 0-.68-2.09 13.2 13.2 0 0 0-.29-.51v-.05a5 5 0 0 0-.33-.47l-3 2.87a6.44 6.44 0 0 1 .25 1.12 13.31 13.31 0 0 1 .1 1.4v1.09H101v-.34l-4.34 4.14v.12l4.34 1.31v-.77a5.72 5.72 0 0 1 0-.59v-1.56h7.89l.26-.26v-.35c0-1 0-1.91-.08-2.69" class="cls-1"/><path id="Fill-54" d="M111.82 31v3.19l.26.25h3.85l.25-.26V32.3Z" class="cls-1"/><path id="Fill-56" d="M116.2 6.3v-.42l-.2-.25h-3.9l-.25.26v4.58Z" class="cls-1"/><path id="Fill-58" d="m118 24.75 2.56 8.3 4.5 1.36.2-.28-4.46-13.07 4.45-6.92-.19-.35h-3.84l-.22.11-4.81 7.1V7.07l-4.36 4.16v19.18l4.35 1.31v-4.5Z" class="cls-1"/><path id="Fill-60" d="m121 34.26.25.19h2.07l-2.5-.76Z" class="cls-1"/></g></g><path d="M0 0h130v40H0z" style="fill:none"/></g></g></svg>